{"title":"6 Below Miracles on the Mountain 2017 1080p BluRay 6CH (5.1) AAC","magnet":"magnet:?xt=urn:btih:407647ce1eb9ca0f8b36515c5191e30d00a1bfa2&dn=6+Below+Miracles+on+the+Mountain+2017+1080p+BluRay+6CH+%285.1%29+AAC&tr=udp%3A%2F%2Ftracker.leechers-paradise.org%3A6969&tr=udp%3A%2F%2Fzer0day.ch%3A1337&tr=udp%3A%2F%2Fopen.demonii.com%3A1337&tr=udp%3A%2F%2Ftracker.coppersurfer.tk%3A6969&tr=udp%3A%2F%2Fexodus.desync.com%3A6969","uploader":"samcode4u","categoryP":"video","categoryS":"hd___movies","size":"1610019995","seeders":"0","leechers":"0","description":"6 Below Miracles on the Mountain 2017 1080p BluRay 6CH (5.1) AAC x264 - EiE\r\n <a href=\"\nhttps://www.imdb.com/title/tt5503688/\" rel=\"nofollow\" target=\"_NEW\">\nhttps://www.imdb.com/title/tt5503688/</a>\r\n\r\n\r\nScreenshots:\r\n\r\n <a href=\"\nhttps://lensdump.com/i/ptTFa\" rel=\"nofollow\" target=\"_NEW\">\nhttps://lensdump.com/i/ptTFa</a>\r\n <a href=\"\nhttps://lensdump.com/i/ptR7Q\" rel=\"nofollow\" target=\"_NEW\">\nhttps://lensdump.com/i/ptR7Q</a>\r\n <a href=\"\nhttps://lensdump.com/i/ptkIe\" rel=\"nofollow\" target=\"_NEW\">\nhttps://lensdump.com/i/ptkIe</a>\r\n <a href=\"\nhttps://lensdump.com/i/pt6mk\" rel=\"nofollow\" target=\"_NEW\">\nhttps://lensdump.com/i/pt6mk</a>\r\n\r\n\r\n\r\nVideo\r\nID                                       : 1\r\nFormat                                   : AVC\r\nFormat/Info                              : Advanced Video Codec\r\nFormat settings, CABAC                   : Yes\r\nFormat settings, ReFrames                : 4 frames\r\nCodec ID                                 : avc1\r\nCodec ID/Info                            : Advanced Video Coding\r\nDuration                                 : 1h 38mn\r\nBit rate                                 : 1 933 Kbps\r\nMaximum bit rate                         : 15.8 Mbps\r\nWidth                                    : 1 912 pixels\r\nHeight                                   : 688 pixels\r\nDisplay aspect ratio                     : 2.779\r\nFrame rate mode                          : Constant\r\nFrame rate                               : 24.000 fps\r\nColor space                              : YUV\r\nChroma subsampling                       : 4:2:0\r\nBit depth                                : 8 bits\r\nScan type                                : Progressive\r\nBits/(Pixel*Frame)                       : 0.061\r\nStream size                              : 1.32 GiB (88%)\r\n\r\n\r\nAudio\r\nID                                       : 2\r\nFormat                                   : AAC\r\nFormat/Info                              : Advanced Audio Codec\r\nFormat profile                           : LC\r\nCodec ID                                 : 40\r\nDuration                                 : 1h 38mn\r\nBit rate mode                            : Variable\r\nBit rate                                 : 253 Kbps\r\nMaximum bit rate                         : 317 Kbps\r\nChannel(s)                               : 6 channels\r\nChannel positions                        : Front: L C R, Side: L R, LFE\r\nSampling rate                            : 48.0 KHz\r\nCompression mode                         : Lossy\r\nStream size                              : 178 MiB (12%)\r\nLanguage                                 : English","last_updated":"2017-12-21T12:02:28.049Z","parsed":{"xt":"urn:btih:407647ce1eb9ca0f8b36515c5191e30d00a1bfa2","dn":"6 Below Miracles on the Mountain 2017 1080p BluRay 6CH (5.1) AAC","tr":["udp://exodus.desync.com:6969","udp://open.demonii.com:1337","udp://tracker.coppersurfer.tk:6969","udp://tracker.leechers-paradise.org:6969","udp://zer0day.ch:1337"],"infoHash":"407647ce1eb9ca0f8b36515c5191e30d00a1bfa2","infoHashBuffer":{"type":"Buffer","data":[64,118,71,206,30,185,202,15,139,54,81,92,81,145,227,13,0,161,191,162]},"name":"6 Below Miracles on the Mountain 2017 1080p BluRay 6CH (5.1) AAC","announce":["udp://exodus.desync.com:6969","udp://open.demonii.com:1337","udp://tracker.coppersurfer.tk:6969","udp://tracker.leechers-paradise.org:6969","udp://zer0day.ch:1337"],"urlList":[]}}